<svg width="781" height="397" viewBox="0 0 781 397" fill="none" xmlns="http://www.w3.org/2000/svg">
<g opacity="0.9">
<g opacity="0.3">
<path d="M445.87 315.473C445.7 315.424 445.557 315.34 445.475 315.219L418.593 280.745C418.486 280.596 418.48 280.443 418.597 280.325C418.711 280.218 418.922 280.181 419.144 280.223L460.982 289.537C461.152 289.586 461.329 289.669 461.426 289.794C461.527 289.909 461.539 290.042 461.474 290.153L446.518 315.313C446.447 315.444 446.242 315.515 446.015 315.493C445.968 315.48 445.904 315.472 445.857 315.459L445.87 315.473ZM420.213 281.275L445.861 314.164L460.133 290.168L420.229 281.279L420.213 281.275Z" fill="#595959"/>
</g>
<g opacity="0.3">
<path d="M445.868 315.472C445.868 315.472 445.714 315.428 445.645 315.376L374.112 271.493C373.885 271.353 373.792 271.153 373.887 270.997C373.982 270.841 374.22 270.768 374.488 270.824L419.155 280.237C419.359 280.284 419.517 280.373 419.615 280.498L446.497 314.972C446.645 315.155 446.603 315.359 446.393 315.45C446.256 315.519 446.054 315.525 445.884 315.477L445.868 315.472ZM376.62 272.072L444.101 313.476L418.75 280.952L376.62 272.072Z" fill="#595959"/>
</g>
<g opacity="0.3">
<path d="M374.337 271.578C374.245 271.552 374.155 271.515 374.086 271.463L316.712 232.992C316.472 232.836 316.409 232.592 316.55 232.449C316.71 232.3 317.016 232.28 317.295 232.414L419.337 280.299C419.604 280.418 419.725 280.636 419.658 280.812C419.591 280.987 419.332 281.074 419.048 281.015L374.381 271.601C374.381 271.601 374.335 271.588 374.319 271.584L374.337 271.578ZM321.716 235.356L374.663 270.851L415.877 279.543L321.732 235.36L321.716 235.356Z" fill="#595959"/>
</g>
<g opacity="0.3">
<path d="M418.989 280.987C418.989 280.987 418.896 280.961 418.853 280.938L316.811 233.053C316.606 232.951 316.468 232.793 316.462 232.64L316.081 145.755C316.083 145.572 316.253 145.448 316.523 145.439C316.774 145.435 317.044 145.545 317.192 145.728L419.599 280.493C419.735 280.661 419.698 280.845 419.535 280.95C419.395 281.028 419.19 281.045 418.989 280.987ZM317.651 232.571L417.659 279.505L317.289 147.429L317.667 232.575L317.651 232.571Z" fill="#595959"/>
</g>
<g opacity="0.3">
<path d="M271.715 221.705C271.545 221.656 271.405 221.562 271.32 221.451C271.222 221.326 271.207 221.203 271.27 221.102L316.136 145.632C316.234 145.465 316.503 145.402 316.796 145.486C317.043 145.557 317.284 145.767 317.279 145.96L317.659 232.845C317.659 232.963 317.596 233.064 317.465 233.113C317.331 233.172 317.163 233.177 316.993 233.129L271.759 221.728C271.759 221.728 271.743 221.724 271.728 221.72L271.715 221.705ZM316.111 147.989L272.631 221.136L316.476 232.192L316.109 147.999L316.111 147.989Z" fill="#595959"/>
</g>
<g opacity="0.3">
<path d="M547.316 361.351C547.316 361.351 547.239 361.329 547.192 361.315L445.732 315.422C445.45 315.298 445.304 315.051 445.407 314.865L460.364 289.705C460.429 289.594 460.584 289.519 460.784 289.523C460.983 289.526 461.181 289.594 461.331 289.712L547.738 360.695C547.94 360.806 548.07 360.995 548.024 361.154C547.964 361.364 547.653 361.458 547.328 361.365C547.328 361.365 547.313 361.361 547.298 361.356L547.316 361.351ZM446.709 314.99L544.738 359.326L461.155 290.676L446.709 314.99Z" fill="#595959"/>
</g>
<g opacity="0.3">
<path d="M547.316 361.353C547.208 361.322 547.106 361.271 547.009 361.2L460.505 290.146C460.33 289.999 460.283 289.813 460.373 289.677C460.477 289.545 460.697 289.478 460.947 289.539L628.82 323.867C629.073 323.918 629.266 324.06 629.337 324.221C629.424 324.386 629.347 324.537 629.174 324.616L547.804 361.341C547.667 361.41 547.468 361.407 547.298 361.358L547.316 361.353ZM462.468 290.645L547.429 360.435L627.357 324.365L462.45 290.65L462.468 290.645Z" fill="#595959"/>
</g>
<g opacity="0.3">
<path d="M460.825 290.313C460.578 290.242 460.378 290.066 460.344 289.894L431.497 125.059C431.465 124.877 431.607 124.734 431.852 124.697C432.093 124.669 432.384 124.763 432.538 124.926L629.258 324.089C629.399 324.237 629.434 324.409 629.316 324.527C629.215 324.649 628.985 324.691 628.763 324.649L460.89 290.32C460.89 290.32 460.843 290.307 460.813 290.298L460.825 290.313ZM432.929 126.593L461.465 289.654L627.526 323.603L432.929 126.593Z" fill="#595959"/>
</g>
<g opacity="0.3">
<path d="M418.989 280.988C418.695 280.904 418.488 280.693 418.512 280.495L431.503 124.974C431.526 124.775 431.763 124.649 432.068 124.693C432.373 124.738 432.635 124.931 432.676 125.138L461.523 289.972C461.538 290.095 461.488 290.211 461.369 290.274C461.251 290.337 461.077 290.363 460.888 290.319L419.051 281.006C419.051 281.006 419.02 280.997 418.989 280.988ZM432.306 129.631L419.724 280.346L460.258 289.372L432.306 129.631Z" fill="#595959"/>
</g>
<g opacity="0.3">
<path d="M418.99 280.988C418.82 280.939 418.677 280.855 418.595 280.734L316.187 145.969C316.102 145.858 316.084 145.745 316.129 145.65C316.173 145.555 316.278 145.477 316.435 145.457L431.833 124.701C432.026 124.67 432.247 124.712 432.418 124.815C432.589 124.918 432.694 125.078 432.688 125.217L419.713 280.623C419.713 280.623 419.746 280.741 419.729 280.801C419.669 281.01 419.358 281.104 419.033 281.011L418.99 280.988ZM317.508 146.143L418.618 279.197L431.441 125.658L317.505 146.153L317.508 146.143Z" fill="#595959"/>
</g>
<g opacity="0.3">
<path d="M431.981 125.468C431.981 125.468 431.966 125.463 431.951 125.459L293.298 81.2684C293.051 81.1975 292.869 81.0158 292.838 80.834C292.822 80.6567 292.963 80.5137 293.202 80.4959L414.88 66.8641C415.036 66.8441 415.224 66.8873 415.386 66.9659C415.547 67.0446 415.648 67.1598 415.681 67.2773L432.671 125.104C432.714 125.246 432.646 125.367 432.506 125.446C432.369 125.514 432.167 125.521 431.981 125.468ZM295.382 81.1106L431.324 124.437L414.665 67.7307L295.37 81.0962L295.382 81.1106Z" fill="#595959"/>
</g>
<g opacity="0.3">
<path d="M316.58 146.232C316.58 146.232 316.487 146.205 316.443 146.182C316.282 146.103 316.163 145.994 316.117 145.862L292.863 80.9154C292.805 80.7692 292.876 80.6384 293.015 80.5597C293.155 80.481 293.36 80.4643 293.573 80.5363L432.226 124.727C432.473 124.798 432.642 124.965 432.677 125.137C432.711 125.309 432.588 125.446 432.359 125.488L316.961 146.244C316.838 146.263 316.706 146.257 316.582 146.222L316.58 146.232ZM294.246 81.5713L317.086 145.341L430.386 124.965L294.261 81.5757L294.246 81.5713Z" fill="#595959"/>
</g>
<g opacity="0.3">
<path d="M628.733 324.64L628.702 324.631C628.563 324.591 628.433 324.521 628.342 324.43L431.621 125.267C431.465 125.114 431.452 124.927 431.569 124.809L519.76 39.9494C519.878 39.8319 520.107 39.7897 520.339 39.8562C520.573 39.9127 520.764 40.0645 520.819 40.2207L629.312 324.136C629.384 324.233 629.42 324.34 629.392 324.44C629.332 324.65 629.021 324.744 628.696 324.651L628.733 324.64ZM432.801 125.174L627.477 322.261L520.072 41.1939L432.801 125.174Z" fill="#595959"/>
</g>
<g opacity="0.3">
<path d="M431.981 125.469C431.749 125.402 431.559 125.251 431.506 125.084L414.516 67.2574C414.466 67.0812 414.574 66.9394 414.775 66.8784L519.957 39.8451C520.192 39.783 520.488 39.8572 520.676 40.019C520.863 40.1808 520.904 40.3869 520.766 40.5199L432.574 125.38C432.457 125.498 432.212 125.535 431.981 125.469ZM415.766 67.562L432.366 124.068L518.526 41.162L415.778 67.5764L415.766 67.562Z" fill="#595959"/>
</g>
<g opacity="0.3">
<path d="M414.991 67.6402C414.868 67.6047 414.737 67.5349 414.643 67.454C414.461 67.2723 414.457 67.0551 414.642 66.9354L513.797 5.14938C513.958 5.05515 514.179 5.04291 514.42 5.13375C514.646 5.22015 514.803 5.37307 514.84 5.53487L520.85 40.2832C520.872 40.4406 520.767 40.5725 520.569 40.6235L415.387 67.6567C415.262 67.6855 415.112 67.6856 414.973 67.6457L414.991 67.6402ZM513.835 6.3585L418.055 66.047L519.649 39.9277L513.835 6.3585Z" fill="#595959"/>
</g>
<g opacity="0.3">
<path d="M445.87 315.473C445.87 315.473 445.855 315.469 445.839 315.464L343.975 282.4C343.759 282.338 343.587 282.18 343.531 282.024C343.476 281.868 343.568 281.721 343.751 281.666L374.082 270.848C374.286 270.777 374.56 270.813 374.772 270.949L446.305 314.832C446.548 314.977 446.635 315.196 446.522 315.358C446.411 315.51 446.145 315.563 445.867 315.483L445.87 315.473ZM345.445 282.055L442.904 313.694L374.471 271.705L345.46 282.059L345.445 282.055Z" fill="#595959"/>
</g>
<g opacity="0.3">
<path d="M344.007 282.398C344.007 282.398 343.976 282.389 343.961 282.385C343.776 282.332 343.641 282.218 343.562 282.087L316.518 232.798C316.419 232.618 316.489 232.433 316.708 232.366C316.913 232.296 317.202 232.335 317.426 232.486L374.801 270.958C374.956 271.056 375.036 271.187 375.032 271.315C375.029 271.444 374.951 271.54 374.802 271.595L344.471 282.413C344.34 282.461 344.174 282.457 344.004 282.408L344.007 282.398ZM318.422 234.143L344.368 281.433L373.47 271.051L318.422 234.143Z" fill="#595959"/>
</g>
<g opacity="0.3">
<path d="M344.007 282.397C343.899 282.366 343.781 282.31 343.702 282.234L271.424 221.544C271.249 221.397 271.205 221.201 271.31 221.069C271.415 220.937 271.662 220.889 271.912 220.95L317.146 232.35C317.332 232.403 317.531 232.525 317.607 232.666L344.651 281.955C344.763 282.149 344.659 282.335 344.44 282.402C344.312 282.441 344.146 282.436 344.007 282.397ZM273.475 222.144L342.466 280.076L316.651 233.029L273.475 222.144Z" fill="#595959"/>
</g>
<g opacity="0.3">
<path d="M271.715 221.705C271.56 221.661 271.433 221.581 271.345 221.48L200.557 142.077C200.444 141.948 200.419 141.8 200.5 141.694C200.581 141.588 200.736 141.513 200.932 141.527L316.589 145.448C316.788 145.452 317.014 145.538 317.143 145.672C317.275 145.796 317.312 145.958 317.244 146.079L272.378 221.55C272.307 221.68 272.121 221.746 271.908 221.728C271.844 221.72 271.779 221.713 271.717 221.695L271.715 221.705ZM202.043 142.374L271.655 220.457L315.776 146.241L202.04 142.384L202.043 142.374Z" fill="#595959"/>
</g>
<g opacity="0.3">
<path d="M202.197 208.487C201.919 208.407 201.722 208.221 201.712 208.023L200.438 141.847C200.437 141.674 200.61 141.54 200.846 141.532C201.085 141.515 201.354 141.624 201.508 141.787L272.296 221.19C272.421 221.334 272.44 221.501 272.326 221.609C272.224 221.731 272.013 221.767 271.791 221.725L202.274 208.509C202.274 208.509 202.213 208.491 202.197 208.487ZM201.638 143.314L202.887 207.831L270.643 220.716L201.638 143.314Z" fill="#595959"/>
</g>
<g opacity="0.3">
<path d="M200.928 142.302C200.758 142.253 200.615 142.169 200.533 142.048C200.412 141.884 200.43 141.706 200.578 141.597L292.965 80.5685C293.107 80.4798 293.328 80.4676 293.544 80.5296C293.76 80.5917 293.935 80.739 293.991 80.8953L317.245 145.842C317.281 145.949 317.265 146.063 317.16 146.141C317.069 146.223 316.926 146.257 316.775 146.257L201.119 142.335C201.119 142.335 200.971 142.325 200.894 142.303L200.928 142.302ZM293.155 81.7133L202.524 141.573L315.963 145.42L293.139 81.7089L293.155 81.7133Z" fill="#595959"/>
</g>
<g opacity="0.3">
<path d="M183.572 206.869C183.449 206.833 183.331 206.778 183.253 206.701C183.134 206.592 183.072 206.455 183.107 206.336L200.457 141.777C200.511 141.588 200.776 141.48 201.09 141.549C201.377 141.599 201.63 141.823 201.638 142.03L202.911 208.206C202.919 208.413 202.694 208.554 202.387 208.52L183.763 206.902C183.763 206.902 183.65 206.891 183.588 206.873L183.572 206.869ZM200.526 146.137L184.396 206.155L201.715 207.658L200.526 146.137Z" fill="#595959"/>
</g>
<g opacity="0.3">
<path d="M183.573 206.869C183.419 206.825 183.291 206.745 183.188 206.64L136.938 153.741C136.838 153.626 136.804 153.509 136.851 153.404C136.883 153.294 137.004 153.221 137.16 153.201L200.759 141.541C200.952 141.51 201.19 141.557 201.373 141.674C201.557 141.791 201.643 141.957 201.603 142.096L184.285 206.545C184.285 206.545 184.293 206.633 184.281 206.673C184.221 206.883 183.938 206.996 183.586 206.884L183.573 206.869ZM138.301 153.884L183.355 205.414L200.258 142.531L138.298 153.894L138.301 153.884Z" fill="#595959"/>
</g>
<g opacity="0.3">
<path d="M200.926 142.301C200.818 142.27 200.716 142.219 200.632 142.162L51.0708 27.5094C50.8775 27.3676 50.818 27.167 50.9227 27.0351C51.0303 26.8932 51.2625 26.8411 51.5153 26.892L293.481 80.5103C293.703 80.5524 293.884 80.6798 293.973 80.835C294.062 80.9901 294.022 81.1297 293.877 81.2284L201.49 142.257C201.387 142.325 201.244 142.359 201.084 142.335C201.037 142.322 200.988 142.318 200.926 142.301ZM53.1699 28.0576L200.968 141.341L292.261 81.0347L53.1699 28.0576Z" fill="#595959"/>
</g>
<g opacity="0.3">
<path d="M137.327 153.972C137.157 153.923 137.001 153.824 136.903 153.699L50.9443 27.3767C50.8145 27.1884 50.8872 26.9933 51.1126 26.9068C51.338 26.8203 51.6526 26.889 51.8585 27.0452L201.422 141.688C201.575 141.797 201.633 141.943 201.614 142.067C201.58 142.187 201.469 142.284 201.291 142.32L137.692 153.979C137.57 153.998 137.438 153.993 137.314 153.957L137.327 153.972ZM53.4568 29.339L137.68 153.09L199.991 141.666L53.4568 29.339Z" fill="#595959"/>
</g>
<g opacity="0.3">
<path d="M628.7 324.629C628.484 324.567 628.306 324.429 628.235 324.269L519.706 40.2455C519.658 40.1236 519.689 40.0138 519.795 39.9362C519.901 39.8586 520.032 39.8099 520.195 39.8242L744.805 53.3778C745.002 53.391 745.197 53.4686 745.329 53.5927C745.46 53.7168 745.503 53.8586 745.451 53.9839L629.381 324.468C629.317 324.633 629.076 324.715 628.821 324.674C628.79 324.665 628.743 324.652 628.713 324.643L628.7 324.629ZM521.02 40.6763L628.805 322.748L744.087 54.1326L521.02 40.6763Z" fill="#595959"/>
</g>
<g opacity="0.3">
<path d="M547.315 361.352C547.176 361.312 547.046 361.242 546.958 361.141C546.779 360.949 546.811 360.721 547.039 360.625L628.409 323.9C628.582 323.82 628.846 323.831 629.064 323.947C629.284 324.054 629.417 324.232 629.389 324.386L627.319 341.098C627.3 341.222 627.204 341.324 627.042 341.364L547.743 361.377C547.617 361.406 547.467 361.406 547.328 361.366L547.315 361.352ZM628.093 325.116L552.469 359.235L626.165 340.637L628.096 325.106L628.093 325.116Z" fill="#595959"/>
</g>
<g opacity="0.3">
<path d="M51.3621 27.6568C51.3621 27.6568 51.2077 27.6125 51.1545 27.5649C50.912 27.4198 50.8216 27.2103 50.9349 27.0485L146.368 -118.77C146.487 -118.952 146.818 -118.998 147.118 -118.879L250.213 -76.8787C250.408 -76.8011 250.536 -76.667 250.582 -76.5352C250.625 -76.3933 250.572 -76.2681 250.433 -76.1894L51.8895 27.6246C51.7499 27.7033 51.5503 27.7 51.365 27.6469L51.3621 27.6568ZM147.241 -117.969L53.0961 25.8656L248.93 -76.5448L147.226 -117.974L147.241 -117.969Z" fill="#595959"/>
</g>
<g opacity="0.3">
<path d="M51.3628 27.6585C51.162 27.6009 50.9967 27.4779 50.9201 27.3372C50.8463 27.1865 50.8921 27.0269 51.05 26.9426L249.578 -76.8758C249.736 -76.9601 249.954 -76.9623 250.164 -76.8803C250.378 -76.8083 250.534 -76.6554 250.577 -76.5136L294.015 80.9231C294.045 81.0505 293.996 81.1658 293.874 81.239C293.753 81.3121 293.563 81.3332 293.39 81.2945L51.4091 27.6717C51.4091 27.6717 51.3782 27.6629 51.3473 27.654L51.3628 27.6585ZM249.632 -75.7809L52.7585 27.1628L292.695 80.3393L249.616 -75.7853L249.632 -75.7809Z" fill="#595959"/>
</g>
<g opacity="0.3">
<path d="M744.768 54.156C744.768 54.156 744.66 54.125 744.604 54.0873C744.386 53.971 744.256 53.7826 744.287 53.6186L748.061 37.9571C748.11 37.7875 748.307 37.6822 748.568 37.7032L772.836 39.5152C773.081 39.5317 773.33 39.6569 773.444 39.8409C773.561 40.0148 773.51 40.1944 773.318 40.2798L745.259 54.1348C745.122 54.2036 744.919 54.2103 744.734 54.1571L744.768 54.156ZM749.176 38.5576L745.74 52.8049L771.25 40.2048L749.176 38.5576Z" fill="#595959"/>
</g>
<g opacity="0.3">
<path d="M565.078 22.3861C564.815 22.3108 564.602 22.1202 564.605 21.9373C564.582 21.7257 564.824 21.5793 565.132 21.6136L748.598 37.7116C748.779 37.7204 748.956 37.8035 749.093 37.9076C749.212 38.0173 749.273 38.1536 749.257 38.2678L745.483 53.9293C745.429 54.1188 745.182 54.2208 744.88 54.1666L565.189 22.4071C565.189 22.4071 565.127 22.3894 565.096 22.3806L565.078 22.3861ZM747.95 38.4542L574.152 23.2079L744.362 53.2945L747.935 38.4498L747.95 38.4542Z" fill="#595959"/>
</g>
<g opacity="0.3">
<path d="M520.173 40.6077C519.987 40.5545 519.819 40.4415 519.74 40.3107C519.625 40.1268 519.692 39.9517 519.899 39.8707L564.821 21.6549C564.934 21.6116 565.071 21.5972 565.213 21.6271L744.905 53.3865C745.207 53.4408 745.466 53.6447 745.474 53.8519C745.496 54.0636 745.272 54.2044 744.974 54.1944L520.364 40.6409C520.364 40.6409 520.234 40.6254 520.173 40.6077ZM565.412 22.4505L522.268 39.9457L738.025 52.9567L565.414 22.4405L565.412 22.4505Z" fill="#595959"/>
</g>
<g opacity="0.3">
<path d="M520.173 40.6084C520.173 40.6084 520.096 40.5862 520.065 40.5774C519.873 40.4899 519.713 40.3469 519.691 40.1896L513.681 5.44124C513.654 5.30382 513.737 5.18743 513.871 5.12866C514.008 5.05993 514.207 5.06321 514.405 5.13077L565.337 21.6632C565.553 21.7253 565.728 21.8726 565.768 22.0244C565.824 22.1807 565.75 22.3215 565.58 22.3913L520.658 40.6072C520.524 40.6659 520.34 40.6671 520.17 40.6184L520.173 40.6084ZM514.942 6.11593L520.731 39.5377L563.929 22.0259L514.954 6.13032L514.942 6.11593Z" fill="#595959"/>
</g>
<g opacity="0.3">
<path d="M414.991 67.641C414.837 67.5967 414.694 67.5125 414.593 67.3973L337.997 -27.0044C337.886 -27.144 337.883 -27.307 337.982 -27.4189C338.096 -27.5264 338.295 -27.5774 338.517 -27.5354L514.269 5.08034C514.506 5.12685 514.705 5.24872 514.795 5.40386C514.884 5.559 514.853 5.72303 514.696 5.80728L415.54 67.5933C415.419 67.6664 415.244 67.692 415.056 67.6488C415.041 67.6443 415.01 67.6355 414.994 67.6311L414.991 67.641ZM339.6 -26.5337L415.169 66.6125L513.004 5.64579L339.6 -26.5337Z" fill="#595959"/>
</g>
<g opacity="0.3">
<path d="M293.313 81.273C293.205 81.242 293.118 81.1955 293.034 81.139C292.869 81.016 292.801 80.8453 292.856 80.7101L337.941 -27.3334C337.999 -27.4786 338.191 -27.564 338.421 -27.5519C338.652 -27.5397 338.884 -27.419 339.01 -27.2749L415.607 67.1268C415.708 67.242 415.722 67.3651 415.676 67.4703C415.629 67.5756 415.492 67.6444 415.336 67.6643L293.658 81.2962C293.553 81.3095 293.44 81.2985 293.332 81.2675L293.313 81.273ZM338.727 -26.1145L294.289 80.3763L414.224 66.9353L338.727 -26.1145Z" fill="#595959"/>
</g>
<g opacity="0.3">
<path d="M293.311 81.2719C293.079 81.2054 292.889 81.0537 292.839 80.8775L249.401 -76.5592C249.364 -76.721 249.454 -76.8574 249.639 -76.9228C249.825 -76.9882 250.081 -76.9473 250.283 -76.8354L338.802 -27.4323C339.032 -27.3015 339.144 -27.1076 339.08 -26.9425L293.995 81.1011C293.931 81.2662 293.687 81.3583 293.404 81.2985C293.373 81.2896 293.342 81.2808 293.311 81.2719ZM250.818 -75.6131L293.506 79.1362L337.809 -27.0586L250.803 -75.6175L250.818 -75.6131Z" fill="#595959"/>
</g>
</g>
</svg>
