<svg width="286" height="548" viewBox="0 0 286 548" fill="none" xmlns="http://www.w3.org/2000/svg">
<g opacity="0.9">
<g opacity="0.3">
<path d="M187.518 395.082C187.45 394.973 187.413 394.859 187.427 394.754L189.573 363.144C189.587 363.012 189.658 362.926 189.778 362.919C189.892 362.916 190.023 362.999 190.123 363.129L208.214 388.38C208.283 388.488 208.338 388.619 208.33 388.733C208.329 388.844 208.271 388.922 208.182 388.95L187.945 395.308C187.843 395.345 187.699 395.284 187.586 395.162C187.568 395.133 187.537 395.097 187.518 395.068L187.518 395.082ZM190.192 364.213L188.146 394.371L207.451 388.31L190.198 364.223L190.192 364.213Z" fill="#595959"/>
</g>
<g opacity="0.3">
<path d="M187.517 395.08C187.517 395.08 187.455 394.982 187.443 394.92L170.024 336.648C169.969 336.463 170.015 336.31 170.142 336.271C170.269 336.233 170.432 336.309 170.55 336.469L190.122 363.141C190.209 363.265 190.252 363.39 190.244 363.504L188.098 395.114C188.09 395.284 187.969 395.374 187.811 395.322C187.704 395.293 187.592 395.198 187.523 395.09L187.517 395.08ZM171.098 338.173L187.528 393.148L189.557 363.331L171.098 338.173Z" fill="#595959"/>
</g>
<g opacity="0.3">
<path d="M170.105 336.803C170.067 336.744 170.037 336.681 170.025 336.62L157.636 288.113C157.581 287.914 157.665 287.751 157.811 287.742C157.969 287.739 158.144 287.876 158.23 288.084L190.191 363.262C190.277 363.456 190.237 363.632 190.116 363.694C189.995 363.757 189.813 363.679 189.688 363.509L170.117 336.837C170.117 336.837 170.098 336.807 170.092 336.797L170.105 336.803ZM159.196 291.809L170.632 336.568L188.687 361.182L159.202 291.819L159.196 291.809Z" fill="#595959"/>
</g>
<g opacity="0.3">
<path d="M189.67 363.466C189.67 363.466 189.633 363.407 189.62 363.373L157.66 288.195C157.598 288.041 157.6 287.888 157.671 287.803L199.46 240.699C199.549 240.602 199.701 240.616 199.851 240.742C199.988 240.862 200.081 241.051 200.072 241.222L190.238 363.494C190.23 363.65 190.121 363.732 189.983 363.709C189.869 363.684 189.75 363.594 189.67 363.466ZM158.347 288.34L189.668 362.023L199.303 242.187L158.353 288.35L158.347 288.34Z" fill="#595959"/>
</g>
<g opacity="0.3">
<path d="M138.791 260.271C138.723 260.162 138.693 260.044 138.7 259.943C138.708 259.828 138.759 259.754 138.842 259.73L199.548 240.659C199.681 240.617 199.857 240.713 199.974 240.9C200.074 241.058 200.102 241.287 200.006 241.389L158.218 288.492C158.16 288.556 158.078 288.58 157.983 288.543C157.883 288.51 157.789 288.432 157.721 288.324L138.803 260.304C138.803 260.304 138.797 260.294 138.791 260.285L138.791 260.271ZM198.395 241.921L139.56 260.406L157.894 287.568L198.389 241.925L198.395 241.921Z" fill="#595959"/>
</g>
<g opacity="0.3">
<path d="M220.125 468.888C220.125 468.888 220.094 468.839 220.076 468.809L187.467 394.987C187.375 394.784 187.415 394.58 187.561 394.529L207.798 388.171C207.887 388.143 208.007 388.177 208.113 388.276C208.219 388.374 208.293 388.506 208.317 388.643L220.67 468.738C220.725 468.896 220.704 469.06 220.603 469.124C220.469 469.208 220.255 469.109 220.125 468.902C220.125 468.902 220.119 468.892 220.113 468.882L220.125 468.888ZM188.203 395.226L219.711 466.549L207.756 389.078L188.203 395.226Z" fill="#595959"/>
</g>
<g opacity="0.3">
<path d="M220.125 468.889C220.082 468.82 220.051 468.743 220.033 468.658L207.662 388.478C207.639 388.314 207.703 388.191 207.818 388.16C207.938 388.14 208.089 388.21 208.194 388.364L282.257 488.04C282.369 488.19 282.405 488.36 282.365 488.481C282.332 488.612 282.218 488.656 282.086 488.615L220.394 469.119C220.287 469.09 220.181 468.992 220.113 468.883L220.125 468.889ZM208.481 389.696L220.63 468.448L281.226 487.602L208.469 389.69L208.481 389.696Z" fill="#595959"/>
</g>
<g opacity="0.3">
<path d="M207.754 388.722C207.655 388.565 207.632 388.373 207.696 388.264L271.788 285.307C271.859 285.194 272.004 285.185 272.155 285.283C272.299 285.385 272.41 285.576 272.415 285.738L282.386 488.371C282.39 488.52 282.326 488.629 282.206 488.636C282.092 488.652 281.947 488.564 281.848 488.434L207.785 388.758C207.785 388.758 207.766 388.728 207.754 388.709L207.754 388.722ZM271.82 286.827L208.418 388.676L281.685 487.271L271.82 286.827Z" fill="#595959"/>
</g>
<g opacity="0.3">
<path d="M189.67 363.466C189.552 363.279 189.542 363.065 189.65 362.97L271.834 285.264C271.942 285.169 272.131 285.215 272.275 285.386C272.418 285.557 272.465 285.789 272.388 285.92L208.296 388.876C208.245 388.95 208.162 388.988 208.068 388.965C207.973 388.942 207.867 388.871 207.786 388.757L189.694 363.506C189.694 363.506 189.682 363.486 189.67 363.466ZM270.017 288.167L190.377 363.475L207.903 387.94L270.017 288.167Z" fill="#595959"/>
</g>
<g opacity="0.3">
<path d="M189.668 363.467C189.6 363.359 189.563 363.244 189.577 363.139L199.412 240.867C199.419 240.766 199.464 240.696 199.534 240.666C199.604 240.636 199.699 240.645 199.793 240.71L272.142 285.277C272.261 285.353 272.36 285.483 272.403 285.621C272.445 285.76 272.425 285.896 272.355 285.968L190.235 363.619C190.235 363.619 190.196 363.699 190.158 363.723C190.024 363.807 189.81 363.708 189.68 363.501L189.668 363.467ZM200.041 241.599L190.333 362.32L271.468 285.604L200.035 241.603L200.041 241.599Z" fill="#595959"/>
</g>
<g opacity="0.3">
<path d="M271.852 285.762C271.852 285.762 271.846 285.752 271.84 285.742L218.323 194.864C218.224 194.706 218.214 194.52 218.285 194.407C218.362 194.303 218.507 194.294 218.645 194.4L290.942 245.849C291.036 245.914 291.117 246.028 291.166 246.149C291.215 246.269 291.213 246.38 291.175 246.46L272.4 285.899C272.355 285.996 272.259 286.029 272.146 286.004C272.039 285.975 271.926 285.88 271.852 285.762ZM219.525 195.786L271.995 284.888L290.407 246.213L219.525 195.772L219.525 195.786Z" fill="#595959"/>
</g>
<g opacity="0.3">
<path d="M199.498 241.198C199.498 241.198 199.46 241.139 199.448 241.105C199.399 240.985 199.388 240.868 199.427 240.775L218.26 194.463C218.299 194.356 218.4 194.32 218.514 194.344C218.627 194.369 218.746 194.46 218.827 194.602L272.343 285.481C272.442 285.638 272.453 285.81 272.388 285.92C272.324 286.029 272.191 286.044 272.047 285.956L199.698 241.389C199.622 241.34 199.554 241.273 199.504 241.194L199.498 241.198ZM218.69 195.486L200.202 240.962L271.234 284.72L218.696 195.495L218.69 195.486Z" fill="#595959"/>
</g>
<g opacity="0.3">
<path d="M281.836 488.415L281.823 488.395C281.768 488.306 281.731 488.206 281.726 488.113L271.755 285.48C271.744 285.322 271.828 285.214 271.948 285.207L360.588 282.007C360.709 282 360.853 282.088 360.946 282.236C361.045 282.38 361.075 282.554 361.029 282.665L282.392 488.423C282.384 488.51 282.352 488.585 282.288 488.626C282.154 488.71 281.941 488.61 281.811 488.403L281.836 488.415ZM272.437 286L282.307 486.523L360.155 282.83L272.437 286Z" fill="#595959"/>
</g>
<g opacity="0.3">
<path d="M271.85 285.762C271.757 285.614 271.728 285.44 271.78 285.325L290.554 245.886C290.613 245.767 290.739 245.742 290.878 245.806L360.743 282.045C360.9 282.126 361.025 282.309 361.048 282.487C361.071 282.665 360.993 282.796 360.854 282.801L272.214 286.001C272.094 286.008 271.943 285.91 271.85 285.762ZM291.082 246.654L272.735 285.192L359.334 282.065L291.082 246.668L291.082 246.654Z" fill="#595959"/>
</g>
<g opacity="0.3">
<path d="M187.518 395.082C187.518 395.082 187.512 395.072 187.506 395.062L148.478 327.972C148.392 327.834 148.375 327.666 148.42 327.555C148.466 327.444 148.586 327.409 148.712 327.468L170.32 336.286C170.464 336.346 170.595 336.498 170.644 336.673L188.063 394.945C188.124 395.141 188.065 395.302 187.926 395.334C187.793 395.363 187.623 395.263 187.512 395.086L187.518 395.082ZM149.439 328.496L186.776 392.687L170.116 336.936L149.445 328.506L149.439 328.496Z" fill="#595959"/>
</g>
<g opacity="0.3">
<path d="M148.497 327.987C148.497 327.987 148.484 327.967 148.478 327.957C148.404 327.839 148.386 327.712 148.407 327.603L157.625 287.915C157.659 287.77 157.786 287.704 157.937 287.774C158.081 287.835 158.218 287.996 158.266 288.186L170.655 336.692C170.692 336.821 170.671 336.93 170.607 336.997C170.543 337.065 170.455 337.08 170.348 337.037L148.74 328.219C148.646 328.182 148.559 328.099 148.49 327.991L148.497 327.987ZM158.003 289.562L149.158 327.64L169.892 336.099L158.003 289.562Z" fill="#595959"/>
</g>
<g opacity="0.3">
<path d="M148.498 327.986C148.454 327.917 148.418 327.83 148.412 327.751L138.714 260.043C138.69 259.879 138.762 259.752 138.882 259.731C139.002 259.71 139.159 259.804 139.264 259.958L158.182 287.977C158.256 288.096 158.305 288.258 158.278 288.371L149.059 328.059C149.026 328.218 148.88 328.268 148.729 328.198C148.641 328.157 148.554 328.074 148.498 327.986ZM139.532 261.358L148.787 325.988L157.586 288.104L139.532 261.358Z" fill="#595959"/>
</g>
<g opacity="0.3">
<path d="M138.79 260.27C138.728 260.172 138.698 260.067 138.699 259.97L138.85 182.877C138.852 182.753 138.91 182.661 139.005 182.643C139.1 182.624 139.219 182.659 139.319 182.761L199.88 240.78C199.986 240.878 200.067 241.034 200.071 241.168C200.082 241.299 200.024 241.404 199.929 241.437L139.223 260.507C139.122 260.543 138.99 260.489 138.884 260.377C138.852 260.341 138.821 260.306 138.797 260.266L138.79 260.27ZM139.509 183.756L139.361 259.568L199.058 240.815L139.503 183.76L139.509 183.756Z" fill="#595959"/>
</g>
<g opacity="0.3">
<path d="M107.638 219.532C107.527 219.355 107.51 219.159 107.6 219.047L138.897 182.695C138.98 182.602 139.138 182.613 139.27 182.723C139.407 182.829 139.5 183.018 139.504 183.18L139.353 260.273C139.351 260.411 139.281 260.511 139.167 260.514C139.053 260.53 138.921 260.448 138.822 260.318L107.669 219.581C107.669 219.581 107.645 219.542 107.638 219.532ZM138.836 184.068L108.327 219.512L138.69 259.218L138.836 184.068Z" fill="#595959"/>
</g>
<g opacity="0.3">
<path d="M138.944 183.178C138.875 183.069 138.839 182.955 138.853 182.85C138.867 182.703 138.963 182.615 139.095 182.628L218.483 194.325C218.603 194.346 218.728 194.446 218.815 194.584C218.902 194.722 218.925 194.886 218.879 194.997L200.047 241.309C200.014 241.385 199.95 241.438 199.856 241.429C199.767 241.43 199.673 241.379 199.592 241.306L139.031 183.288C139.031 183.288 138.956 183.211 138.925 183.162L138.944 183.178ZM218.032 195.035L140.158 183.556L199.558 240.461L218.026 195.025L218.032 195.035Z" fill="#595959"/>
</g>
<g opacity="0.3">
<path d="M98.3637 209.656C98.3141 209.577 98.2772 209.49 98.2719 209.411C98.2607 209.295 98.2935 209.191 98.3699 209.143L138.942 182.666C139.063 182.59 139.258 182.66 139.395 182.849C139.525 183.015 139.554 183.258 139.458 183.374L108.161 219.726C108.065 219.841 107.875 219.809 107.726 219.641L98.4508 209.766C98.4508 209.766 98.3947 209.705 98.3699 209.666L98.3637 209.656ZM136.872 185.055L99.1533 209.669L107.78 218.851L136.872 185.055Z" fill="#595959"/>
</g>
<g opacity="0.3">
<path d="M98.3644 209.657C98.3024 209.559 98.2721 209.454 98.2671 209.347L98.8591 158.427C98.8604 158.316 98.8993 158.237 98.9755 158.203C99.0456 158.159 99.1464 158.178 99.2404 158.242L139.221 182.685C139.34 182.762 139.445 182.902 139.488 183.054C139.53 183.206 139.497 183.337 139.408 183.393L98.9057 209.826C98.9057 209.826 98.8672 209.878 98.8417 209.894C98.708 209.978 98.5005 209.902 98.3643 209.671L98.3644 209.657ZM99.5262 159.163L98.9502 208.766L138.471 182.978L99.5198 159.167L99.5262 159.163Z" fill="#595959"/>
</g>
<g opacity="0.3">
<path d="M138.942 183.176C138.899 183.107 138.868 183.03 138.85 182.959L113.499 48.7571C113.464 48.5871 113.528 48.45 113.649 48.4294C113.775 48.4048 113.926 48.4889 114.038 48.6386L218.788 194.543C218.888 194.673 218.924 194.829 218.897 194.956C218.87 195.083 218.781 195.139 218.655 195.122L139.267 183.426C139.179 183.412 139.085 183.361 139.01 183.271C138.992 183.241 138.967 183.216 138.942 183.176ZM114.368 50.0677L139.428 182.678L217.876 194.236L114.368 50.0677Z" fill="#595959"/>
</g>
<g opacity="0.3">
<path d="M98.9564 158.739C98.8882 158.631 98.8519 158.502 98.8596 158.387L113.496 48.6242C113.517 48.4597 113.65 48.3895 113.814 48.4517C113.977 48.514 114.114 48.7031 114.149 48.887L139.506 183.085C139.536 183.217 139.497 183.325 139.427 183.383C139.351 183.431 139.243 183.429 139.13 183.363L99.1501 158.92C99.0748 158.871 99.0062 158.804 98.9566 158.725L98.9564 158.739ZM113.904 50.8982L99.5729 158.434L138.744 182.381L113.904 50.8982Z" fill="#595959"/>
</g>
<g opacity="0.3">
<path d="M281.823 488.393C281.736 488.255 281.707 488.095 281.746 487.974L360.416 282.141C360.448 282.052 360.519 282.008 360.613 282.017C360.708 282.026 360.802 282.063 360.883 282.15L475.626 398.03C475.726 398.132 475.794 398.268 475.805 398.399C475.816 398.53 475.771 398.627 475.682 398.669L282.269 488.636C282.154 488.694 281.985 488.622 281.866 488.476C281.854 488.456 281.835 488.427 281.823 488.407L281.823 488.393ZM360.917 283.009L282.789 487.428L474.874 398.091L360.917 283.009Z" fill="#595959"/>
</g>
<g opacity="0.3">
<path d="M220.125 468.889C220.069 468.8 220.032 468.699 220.034 468.602C220.03 468.412 220.157 468.304 220.327 468.363L282.019 487.859C282.151 487.9 282.288 488.033 282.349 488.201C282.417 488.365 282.402 488.525 282.313 488.595L273.118 496.62C273.048 496.678 272.946 496.686 272.84 496.63L220.343 469.109C220.262 469.064 220.18 468.991 220.125 468.903L220.125 468.889ZM281.261 488.363L223.931 470.236L272.717 495.813L281.267 488.359L281.261 488.363Z" fill="#595959"/>
</g>
<g opacity="0.3">
<path d="M113.586 48.9774C113.586 48.9774 113.524 48.8788 113.519 48.8274C113.458 48.6318 113.51 48.475 113.65 48.4424L235.664 15.8232C235.816 15.7825 236.017 15.9178 236.121 16.1269L271.494 88.6369C271.562 88.7731 271.567 88.9077 271.528 89.001C271.483 89.0983 271.394 89.1405 271.28 89.1155L113.887 49.2149C113.773 49.1899 113.667 49.0916 113.593 48.9734L113.586 48.9774ZM235.748 16.6779L115.388 48.8481L270.641 88.1973L235.742 16.668L235.748 16.6779Z" fill="#595959"/>
</g>
<g opacity="0.3">
<path d="M113.586 48.9784C113.505 48.8502 113.475 48.7039 113.502 48.5909C113.535 48.4739 113.637 48.4098 113.763 48.4406L271.15 88.3314C271.276 88.3622 271.395 88.4664 271.469 88.6124C271.55 88.7544 271.56 88.9127 271.515 89.01L218.878 195.024C218.833 195.107 218.75 195.145 218.649 195.126C218.549 195.107 218.436 195.027 218.361 194.922L113.604 49.0079C113.604 49.0079 113.592 48.9882 113.58 48.9685L113.586 48.9784ZM270.65 88.9486L114.579 49.3853L218.447 194.07L270.644 88.9388L270.65 88.9486Z" fill="#595959"/>
</g>
<g opacity="0.3">
<path d="M270.971 88.8695C270.921 88.7907 270.885 88.6899 270.879 88.6108L263.458 0.310905C263.448 0.138731 263.532 0.0173822 263.67 0.0263246C263.809 0.0352671 263.972 0.152932 264.059 0.318644L313.921 96.6039C313.982 96.7302 314.006 96.8666 313.967 96.9738C313.934 97.077 313.839 97.1232 313.725 97.0982L271.284 89.1129C271.189 89.0897 271.089 89.0291 271.008 88.9287C270.996 88.9089 270.983 88.8892 270.965 88.8597L270.971 88.8695ZM264.235 1.89934L271.501 88.3986L313.079 96.2256L264.235 1.89934Z" fill="#595959"/>
</g>
<g opacity="0.3">
<path d="M270.972 88.8692C270.972 88.8692 270.947 88.8298 270.935 88.8101L235.562 16.3001C235.47 16.1107 235.485 15.9086 235.612 15.8424L263.57 0.0485448C263.659 -0.00750516 263.798 0.0291604 263.917 0.133274C264.035 0.237388 264.116 0.393242 264.127 0.537697L271.542 88.7584C271.584 88.9106 271.557 89.0513 271.462 89.1114C271.328 89.1955 271.121 89.1058 270.985 88.889L270.972 88.8692ZM236.28 16.4674L270.766 87.1423L263.533 1.07635L236.28 16.4674Z" fill="#595959"/>
</g>
<g opacity="0.3">
<path d="M294.892 158.322C294.892 158.322 294.836 158.234 294.824 158.186L270.9 88.7234C270.858 88.5989 270.859 88.488 270.904 88.4046C270.949 88.3211 271.026 88.2869 271.126 88.306L313.568 96.2914C313.681 96.3164 313.819 96.4223 313.887 96.5446C313.968 96.6728 313.997 96.8329 313.964 96.9361L295.441 158.404C295.401 158.538 295.281 158.587 295.142 158.536C295.042 158.503 294.948 158.411 294.88 158.303L294.892 158.322ZM271.678 89.1833L295.065 157.086L313.174 96.993L271.678 89.1833Z" fill="#595959"/>
</g>
<g opacity="0.3">
<path d="M290.628 246.323C290.566 246.225 290.529 246.11 290.531 245.999L294.794 157.999C294.802 157.87 294.879 157.781 294.987 157.768C295.1 157.765 295.232 157.834 295.332 157.964L374.477 260.523C374.583 260.663 374.631 260.825 374.605 260.952C374.578 261.079 374.482 261.153 374.356 261.122L290.947 246.563C290.846 246.543 290.74 246.473 290.659 246.359C290.653 246.349 290.641 246.329 290.634 246.319L290.628 246.323ZM295.433 159.028L291.221 245.854L373.521 260.217L295.433 159.028Z" fill="#595959"/>
</g>
<g opacity="0.3">
<path d="M218.33 194.874C218.286 194.805 218.262 194.738 218.244 194.666C218.214 194.52 218.26 194.395 218.355 194.349L294.922 157.794C295.024 157.744 295.169 157.79 295.287 157.908C295.406 158.026 295.473 158.204 295.472 158.343L291.208 246.343C291.207 246.454 291.155 246.527 291.079 246.561C291.003 246.596 290.896 246.567 290.802 246.502L218.504 195.053C218.442 195.01 218.386 194.949 218.342 194.88L218.33 194.874ZM294.758 158.833L219.29 194.861L290.554 245.571L294.758 158.833Z" fill="#595959"/>
</g>
<g opacity="0.3">
<path d="M218.329 194.872C218.236 194.724 218.207 194.55 218.265 194.431L270.902 88.4176C270.96 88.3122 271.074 88.2817 271.206 88.3363C271.338 88.3908 271.456 88.5365 271.511 88.6945L295.435 158.157C295.496 158.339 295.463 158.498 295.348 158.556L218.781 195.111C218.667 195.169 218.491 195.101 218.366 194.931C218.354 194.912 218.341 194.892 218.329 194.872ZM271.209 89.6133L219.466 193.813L294.718 157.879L271.203 89.6034L271.209 89.6133Z" fill="#595959"/>
</g>
</g>
</svg>
